<mxfile host="app.diagrams.net" agent="Mozilla/5.0 (X11; Linux x86_64; rv:130.0) Gecko/20100101 Firefox/130.0" version="26.2.14">
  <diagram name="Page-1" id="FO4wU6uAOWpxlEI_7BUU">
    <mxGraphModel dx="1121" dy="832" grid="1" gridSize="10" guides="1" tooltips="1" connect="1" arrows="1" fold="1" page="1" pageScale="1" pageWidth="850" pageHeight="1100" math="0" shadow="0">
      <root>
        <mxCell id="0" />
        <mxCell id="1" parent="0" />
        <mxCell id="l8wk_pgIOx0_skZfnd5F-7" value="" style="endArrow=classic;html=1;rounded=0;entryX=0.5;entryY=0;entryDx=0;entryDy=0;entryPerimeter=0;exitX=0.5;exitY=1;exitDx=0;exitDy=0;fillColor=#647687;strokeColor=#314354;" parent="1" source="elYpCwUr6IDclWBqz2dl-32" target="elYpCwUr6IDclWBqz2dl-1" edge="1">
          <mxGeometry width="50" height="50" relative="1" as="geometry">
            <mxPoint x="500" y="410" as="sourcePoint" />
            <mxPoint x="550" y="360" as="targetPoint" />
          </mxGeometry>
        </mxCell>
        <mxCell id="l8wk_pgIOx0_skZfnd5F-5" value="" style="endArrow=classic;html=1;rounded=0;entryX=0.41;entryY=1.053;entryDx=0;entryDy=0;exitX=0.4;exitY=-0.037;exitDx=0;exitDy=0;exitPerimeter=0;fillColor=#647687;strokeColor=#314354;entryPerimeter=0;" parent="1" source="elYpCwUr6IDclWBqz2dl-1" target="elYpCwUr6IDclWBqz2dl-32" edge="1">
          <mxGeometry width="50" height="50" relative="1" as="geometry">
            <mxPoint x="221" y="457.5" as="sourcePoint" />
            <mxPoint x="220" y="582.5" as="targetPoint" />
          </mxGeometry>
        </mxCell>
        <mxCell id="elYpCwUr6IDclWBqz2dl-1" value="Database" style="shape=cylinder3;whiteSpace=wrap;html=1;boundedLbl=1;backgroundOutline=1;size=15;" parent="1" vertex="1">
          <mxGeometry x="120" y="580" width="250" height="80" as="geometry" />
        </mxCell>
        <mxCell id="elYpCwUr6IDclWBqz2dl-32" value="Server" style="rounded=0;whiteSpace=wrap;html=1;" parent="1" vertex="1">
          <mxGeometry x="60" y="210" width="390" height="240" as="geometry" />
        </mxCell>
        <mxCell id="elYpCwUr6IDclWBqz2dl-40" value="" style="endArrow=classic;html=1;rounded=0;entryX=0.04;entryY=0.075;entryDx=0;entryDy=0;entryPerimeter=0;exitX=0.179;exitY=1.002;exitDx=0;exitDy=0;fillColor=#60a917;strokeColor=#2D7600;exitPerimeter=0;" parent="1" source="elYpCwUr6IDclWBqz2dl-32" target="elYpCwUr6IDclWBqz2dl-1" edge="1">
          <mxGeometry width="50" height="50" relative="1" as="geometry">
            <mxPoint x="179.5" y="450" as="sourcePoint" />
            <mxPoint x="170" y="583.04" as="targetPoint" />
            <Array as="points">
              <mxPoint x="130" y="500" />
            </Array>
          </mxGeometry>
        </mxCell>
        <mxCell id="elYpCwUr6IDclWBqz2dl-47" value="SQL Query" style="edgeLabel;html=1;align=center;verticalAlign=middle;resizable=0;points=[];" parent="elYpCwUr6IDclWBqz2dl-40" vertex="1" connectable="0">
          <mxGeometry x="-0.41" y="1" relative="1" as="geometry">
            <mxPoint x="9" y="9" as="offset" />
          </mxGeometry>
        </mxCell>
        <mxCell id="elYpCwUr6IDclWBqz2dl-45" value="" style="endArrow=classic;html=1;rounded=0;entryX=0.344;entryY=1.017;entryDx=0;entryDy=0;exitX=0.32;exitY=0;exitDx=0;exitDy=0;exitPerimeter=0;fillColor=#60a917;strokeColor=#2D7600;entryPerimeter=0;" parent="1" edge="1">
          <mxGeometry width="50" height="50" relative="1" as="geometry">
            <mxPoint x="150" y="580" as="sourcePoint" />
            <mxPoint x="156" y="451.02" as="targetPoint" />
          </mxGeometry>
        </mxCell>
        <mxCell id="l8wk_pgIOx0_skZfnd5F-3" value="" style="endArrow=classic;html=1;rounded=0;entryX=0.304;entryY=-0.025;entryDx=0;entryDy=0;entryPerimeter=0;exitX=0.308;exitY=1.05;exitDx=0;exitDy=0;exitPerimeter=0;fillColor=#647687;strokeColor=#314354;" parent="1" source="elYpCwUr6IDclWBqz2dl-32" target="elYpCwUr6IDclWBqz2dl-1" edge="1">
          <mxGeometry width="50" height="50" relative="1" as="geometry">
            <mxPoint x="500" y="410" as="sourcePoint" />
            <mxPoint x="550" y="360" as="targetPoint" />
          </mxGeometry>
        </mxCell>
        <mxCell id="l8wk_pgIOx0_skZfnd5F-4" value="&lt;div&gt;Process Unprocessed&lt;/div&gt;&lt;div&gt;&amp;nbsp;Data&lt;/div&gt;" style="edgeLabel;html=1;align=center;verticalAlign=middle;resizable=0;points=[];" parent="l8wk_pgIOx0_skZfnd5F-3" vertex="1" connectable="0">
          <mxGeometry x="-0.5038" y="-2" relative="1" as="geometry">
            <mxPoint x="25" y="-4" as="offset" />
          </mxGeometry>
        </mxCell>
        <mxCell id="l8wk_pgIOx0_skZfnd5F-57" value="" style="endArrow=classic;html=1;rounded=0;exitX=0.728;exitY=0.989;exitDx=0;exitDy=0;exitPerimeter=0;entryX=0.911;entryY=0.101;entryDx=0;entryDy=0;entryPerimeter=0;fillColor=#e6d0de;strokeColor=#996185;gradientColor=#d5739d;" parent="1" source="elYpCwUr6IDclWBqz2dl-32" target="elYpCwUr6IDclWBqz2dl-1" edge="1">
          <mxGeometry width="50" height="50" relative="1" as="geometry">
            <mxPoint x="450" y="400" as="sourcePoint" />
            <mxPoint x="500" y="350" as="targetPoint" />
          </mxGeometry>
        </mxCell>
        <mxCell id="l8wk_pgIOx0_skZfnd5F-58" value="&lt;div&gt;Write Data From API&#39;s&lt;/div&gt;" style="edgeLabel;html=1;align=center;verticalAlign=middle;resizable=0;points=[];" parent="l8wk_pgIOx0_skZfnd5F-57" vertex="1" connectable="0">
          <mxGeometry x="-0.518" y="1" relative="1" as="geometry">
            <mxPoint as="offset" />
          </mxGeometry>
        </mxCell>
        <mxCell id="l8wk_pgIOx0_skZfnd5F-60" value="" style="group" parent="1" vertex="1" connectable="0">
          <mxGeometry x="550" y="90" width="320" height="160" as="geometry" />
        </mxCell>
        <mxCell id="l8wk_pgIOx0_skZfnd5F-49" value="" style="shape=hexagon;perimeter=hexagonPerimeter2;whiteSpace=wrap;html=1;fixedSize=1;" parent="l8wk_pgIOx0_skZfnd5F-60" vertex="1">
          <mxGeometry width="320" height="160" as="geometry" />
        </mxCell>
        <mxCell id="l8wk_pgIOx0_skZfnd5F-50" value="Cloud" style="text;strokeColor=none;fillColor=none;html=1;fontSize=24;fontStyle=1;verticalAlign=middle;align=center;" parent="l8wk_pgIOx0_skZfnd5F-60" vertex="1">
          <mxGeometry x="20" y="9.996666666666698" width="100" height="26.666666666666664" as="geometry" />
        </mxCell>
        <mxCell id="l8wk_pgIOx0_skZfnd5F-53" value="Instagram" style="shape=parallelogram;perimeter=parallelogramPerimeter;whiteSpace=wrap;html=1;fixedSize=1;fillColor=none;strokeColor=light-dark(#000000,#66CC00);" parent="l8wk_pgIOx0_skZfnd5F-60" vertex="1">
          <mxGeometry x="30" y="49.99999999999997" width="120" height="50" as="geometry" />
        </mxCell>
        <mxCell id="l8wk_pgIOx0_skZfnd5F-55" value="Samsung Health" style="shape=parallelogram;perimeter=parallelogramPerimeter;whiteSpace=wrap;html=1;fixedSize=1;fillColor=none;strokeColor=light-dark(#000000,#66CC00);" parent="l8wk_pgIOx0_skZfnd5F-60" vertex="1">
          <mxGeometry x="170" y="9.999999999999972" width="120" height="50" as="geometry" />
        </mxCell>
        <mxCell id="l8wk_pgIOx0_skZfnd5F-56" value="IFTTT" style="shape=parallelogram;perimeter=parallelogramPerimeter;whiteSpace=wrap;html=1;fixedSize=1;fillColor=none;strokeColor=light-dark(#000000,#66CC00);" parent="l8wk_pgIOx0_skZfnd5F-60" vertex="1">
          <mxGeometry x="160" y="79.99999999999997" width="120" height="50" as="geometry" />
        </mxCell>
        <mxCell id="l8wk_pgIOx0_skZfnd5F-65" value="" style="endArrow=classic;html=1;rounded=0;entryX=0.467;entryY=0.019;entryDx=0;entryDy=0;entryPerimeter=0;fillColor=#dae8fc;strokeColor=#6c8ebf;gradientColor=#7ea6e0;exitX=0.65;exitY=1.012;exitDx=0;exitDy=0;exitPerimeter=0;" parent="1" source="elYpCwUr6IDclWBqz2dl-32" edge="1">
          <mxGeometry width="50" height="50" relative="1" as="geometry">
            <mxPoint x="310" y="460" as="sourcePoint" />
            <mxPoint x="280" y="580" as="targetPoint" />
          </mxGeometry>
        </mxCell>
        <mxCell id="l8wk_pgIOx0_skZfnd5F-66" value="Annotate data/timestamp" style="edgeLabel;html=1;align=center;verticalAlign=middle;resizable=0;points=[];" parent="l8wk_pgIOx0_skZfnd5F-65" vertex="1" connectable="0">
          <mxGeometry x="-0.288" y="-2" relative="1" as="geometry">
            <mxPoint y="35" as="offset" />
          </mxGeometry>
        </mxCell>
        <mxCell id="V2wH8eBnc_8K7_rHvsV1-10" value="Screen data source" style="shape=process;whiteSpace=wrap;html=1;backgroundOutline=1;" parent="1" vertex="1">
          <mxGeometry x="320" y="370" width="120" height="60" as="geometry" />
        </mxCell>
        <mxCell id="V2wH8eBnc_8K7_rHvsV1-12" value="" style="curved=1;endArrow=classic;html=1;rounded=0;exitX=0.5;exitY=0;exitDx=0;exitDy=0;entryX=0;entryY=0.5;entryDx=0;entryDy=0;" parent="1" source="V2wH8eBnc_8K7_rHvsV1-10" target="V2wH8eBnc_8K7_rHvsV1-10" edge="1">
          <mxGeometry width="50" height="50" relative="1" as="geometry">
            <mxPoint x="500" y="400" as="sourcePoint" />
            <mxPoint x="550" y="350" as="targetPoint" />
            <Array as="points">
              <mxPoint x="400" y="370" />
              <mxPoint x="370" y="330" />
              <mxPoint x="300" y="320" />
              <mxPoint x="300" y="400" />
            </Array>
          </mxGeometry>
        </mxCell>
        <mxCell id="V2wH8eBnc_8K7_rHvsV1-13" value="Job (every hr, when user requests data)" style="edgeLabel;html=1;align=center;verticalAlign=middle;resizable=0;points=[];" parent="V2wH8eBnc_8K7_rHvsV1-12" vertex="1" connectable="0">
          <mxGeometry x="-0.486" y="3" relative="1" as="geometry">
            <mxPoint as="offset" />
          </mxGeometry>
        </mxCell>
        <mxCell id="V2wH8eBnc_8K7_rHvsV1-14" value="What if database goes down on the device?" style="rhombus;whiteSpace=wrap;html=1;" parent="1" vertex="1">
          <mxGeometry x="390" y="720" width="210" height="80" as="geometry" />
        </mxCell>
        <mxCell id="V2wH8eBnc_8K7_rHvsV1-15" value="How to make this robust to errors on system (try to restart DB on each device)" style="rhombus;whiteSpace=wrap;html=1;" parent="1" vertex="1">
          <mxGeometry x="605" y="710" width="210" height="80" as="geometry" />
        </mxCell>
        <mxCell id="V2wH8eBnc_8K7_rHvsV1-17" value="Instagram data source" style="shape=process;whiteSpace=wrap;html=1;backgroundOutline=1;" parent="1" vertex="1">
          <mxGeometry x="305" y="230" width="120" height="60" as="geometry" />
        </mxCell>
        <mxCell id="V2wH8eBnc_8K7_rHvsV1-18" value="" style="curved=1;endArrow=classic;html=1;rounded=0;exitX=0.5;exitY=0;exitDx=0;exitDy=0;entryX=0;entryY=0.5;entryDx=0;entryDy=0;" parent="1" edge="1">
          <mxGeometry width="50" height="50" relative="1" as="geometry">
            <mxPoint x="360" y="230" as="sourcePoint" />
            <mxPoint x="300" y="260" as="targetPoint" />
            <Array as="points">
              <mxPoint x="380" y="230" />
              <mxPoint x="350" y="190" />
              <mxPoint x="280" y="180" />
              <mxPoint x="280" y="260" />
            </Array>
          </mxGeometry>
        </mxCell>
        <mxCell id="V2wH8eBnc_8K7_rHvsV1-19" value="Job (longer period of time)" style="edgeLabel;html=1;align=center;verticalAlign=middle;resizable=0;points=[];" parent="V2wH8eBnc_8K7_rHvsV1-18" vertex="1" connectable="0">
          <mxGeometry x="-0.486" y="3" relative="1" as="geometry">
            <mxPoint as="offset" />
          </mxGeometry>
        </mxCell>
        <mxCell id="V2wH8eBnc_8K7_rHvsV1-20" value="" style="endArrow=classic;html=1;rounded=0;exitX=0.994;exitY=0.693;exitDx=0;exitDy=0;exitPerimeter=0;" parent="1" target="l8wk_pgIOx0_skZfnd5F-49" edge="1">
          <mxGeometry width="50" height="50" relative="1" as="geometry">
            <mxPoint x="424.9999999999998" y="239.99999999999994" as="sourcePoint" />
            <mxPoint x="735.72" y="361" as="targetPoint" />
          </mxGeometry>
        </mxCell>
        <mxCell id="V2wH8eBnc_8K7_rHvsV1-21" value="" style="endArrow=classic;html=1;rounded=0;entryX=0.987;entryY=0.321;entryDx=0;entryDy=0;entryPerimeter=0;" parent="1" target="V2wH8eBnc_8K7_rHvsV1-17" edge="1">
          <mxGeometry width="50" height="50" relative="1" as="geometry">
            <mxPoint x="560" y="220" as="sourcePoint" />
            <mxPoint x="569" y="217" as="targetPoint" />
          </mxGeometry>
        </mxCell>
        <mxCell id="V2wH8eBnc_8K7_rHvsV1-22" value="" style="group" parent="1" vertex="1" connectable="0">
          <mxGeometry x="500" y="290" width="550" height="340" as="geometry" />
        </mxCell>
        <mxCell id="elYpCwUr6IDclWBqz2dl-4" value="" style="shape=hexagon;perimeter=hexagonPerimeter2;whiteSpace=wrap;html=1;fixedSize=1;" parent="V2wH8eBnc_8K7_rHvsV1-22" vertex="1">
          <mxGeometry width="550" height="340" as="geometry" />
        </mxCell>
        <mxCell id="elYpCwUr6IDclWBqz2dl-8" value="&lt;h4&gt;Laptop&lt;br&gt;&lt;/h4&gt;" style="text;strokeColor=none;fillColor=none;html=1;fontSize=24;fontStyle=1;verticalAlign=middle;align=center;" parent="V2wH8eBnc_8K7_rHvsV1-22" vertex="1">
          <mxGeometry x="30" y="6.666666666666686" width="100" height="26.666666666666664" as="geometry" />
        </mxCell>
        <mxCell id="elYpCwUr6IDclWBqz2dl-9" value="Input" style="shape=parallelogram;perimeter=parallelogramPerimeter;whiteSpace=wrap;html=1;fixedSize=1;strokeColor=light-dark(#000000,#66CC00);" parent="V2wH8eBnc_8K7_rHvsV1-22" vertex="1">
          <mxGeometry x="380" y="225" width="120" height="50" as="geometry" />
        </mxCell>
        <mxCell id="elYpCwUr6IDclWBqz2dl-2" value="Screen" style="shape=parallelogram;perimeter=parallelogramPerimeter;whiteSpace=wrap;html=1;fixedSize=1;fillColor=none;strokeColor=light-dark(#000000,#66CC00);" parent="V2wH8eBnc_8K7_rHvsV1-22" vertex="1">
          <mxGeometry x="390" y="170" width="120" height="50" as="geometry" />
        </mxCell>
        <mxCell id="V2wH8eBnc_8K7_rHvsV1-2" value="Raw data" style="shape=cylinder3;whiteSpace=wrap;html=1;boundedLbl=1;backgroundOutline=1;size=15;" parent="V2wH8eBnc_8K7_rHvsV1-22" vertex="1">
          <mxGeometry x="170" y="225" width="160" height="60" as="geometry" />
        </mxCell>
        <mxCell id="V2wH8eBnc_8K7_rHvsV1-4" value="" style="endArrow=classic;html=1;rounded=0;entryX=1;entryY=0;entryDx=0;entryDy=15;entryPerimeter=0;exitX=0;exitY=1;exitDx=0;exitDy=0;" parent="V2wH8eBnc_8K7_rHvsV1-22" source="elYpCwUr6IDclWBqz2dl-2" target="V2wH8eBnc_8K7_rHvsV1-2" edge="1">
          <mxGeometry width="50" height="50" relative="1" as="geometry">
            <mxPoint x="394" y="105" as="sourcePoint" />
            <mxPoint x="300" y="255" as="targetPoint" />
          </mxGeometry>
        </mxCell>
        <mxCell id="V2wH8eBnc_8K7_rHvsV1-5" value="" style="endArrow=classic;html=1;rounded=0;entryX=0.977;entryY=0.321;entryDx=0;entryDy=0;entryPerimeter=0;" parent="V2wH8eBnc_8K7_rHvsV1-22" source="elYpCwUr6IDclWBqz2dl-9" target="V2wH8eBnc_8K7_rHvsV1-2" edge="1">
          <mxGeometry width="50" height="50" relative="1" as="geometry">
            <mxPoint x="390" y="200" as="sourcePoint" />
            <mxPoint x="300" y="255" as="targetPoint" />
          </mxGeometry>
        </mxCell>
        <mxCell id="V2wH8eBnc_8K7_rHvsV1-23" value="Browser History" style="shape=parallelogram;perimeter=parallelogramPerimeter;whiteSpace=wrap;html=1;fixedSize=1;strokeColor=light-dark(#000000,#66CC00);" parent="V2wH8eBnc_8K7_rHvsV1-22" vertex="1">
          <mxGeometry x="290" y="20" width="120" height="53.33" as="geometry" />
        </mxCell>
        <mxCell id="V2wH8eBnc_8K7_rHvsV1-24" value="" style="endArrow=classic;html=1;rounded=0;entryX=0.833;entryY=0;entryDx=0;entryDy=0;entryPerimeter=0;exitX=0.25;exitY=1;exitDx=0;exitDy=0;" parent="V2wH8eBnc_8K7_rHvsV1-22" source="V2wH8eBnc_8K7_rHvsV1-23" edge="1">
          <mxGeometry width="50" height="50" relative="1" as="geometry">
            <mxPoint x="130" y="70" as="sourcePoint" />
            <mxPoint x="289.96000000000004" y="140" as="targetPoint" />
          </mxGeometry>
        </mxCell>
        <mxCell id="V2wH8eBnc_8K7_rHvsV1-25" value="" style="endArrow=classic;html=1;rounded=0;entryX=0.068;entryY=1.01;entryDx=0;entryDy=0;entryPerimeter=0;exitX=0.75;exitY=0;exitDx=0;exitDy=0;" parent="V2wH8eBnc_8K7_rHvsV1-22" target="V2wH8eBnc_8K7_rHvsV1-23" edge="1">
          <mxGeometry width="50" height="50" relative="1" as="geometry">
            <mxPoint x="280" y="140" as="sourcePoint" />
            <mxPoint x="300" y="150" as="targetPoint" />
          </mxGeometry>
        </mxCell>
        <mxCell id="tXobWxjcqB6qyV5-d99v-3" value="config.toml" style="rounded=0;whiteSpace=wrap;html=1;" parent="V2wH8eBnc_8K7_rHvsV1-22" vertex="1">
          <mxGeometry x="30" y="260" width="120" height="60" as="geometry" />
        </mxCell>
        <mxCell id="V2wH8eBnc_8K7_rHvsV1-11" value="" style="endArrow=classic;html=1;rounded=0;entryX=0.313;entryY=0.083;entryDx=0;entryDy=0;exitX=0.994;exitY=0.693;exitDx=0;exitDy=0;exitPerimeter=0;entryPerimeter=0;" parent="1" target="V2wH8eBnc_8K7_rHvsV1-2" edge="1">
          <mxGeometry width="50" height="50" relative="1" as="geometry">
            <mxPoint x="439.27999999999975" y="379.99999999999994" as="sourcePoint" />
            <mxPoint x="690" y="441.25" as="targetPoint" />
          </mxGeometry>
        </mxCell>
        <mxCell id="V2wH8eBnc_8K7_rHvsV1-16" value="" style="endArrow=classic;html=1;rounded=0;entryX=1;entryY=0.5;entryDx=0;entryDy=0;exitX=0;exitY=0;exitDx=0;exitDy=15;exitPerimeter=0;" parent="1" source="V2wH8eBnc_8K7_rHvsV1-2" target="V2wH8eBnc_8K7_rHvsV1-10" edge="1">
          <mxGeometry width="50" height="50" relative="1" as="geometry">
            <mxPoint x="690" y="452.5" as="sourcePoint" />
            <mxPoint x="760" y="511" as="targetPoint" />
          </mxGeometry>
        </mxCell>
        <mxCell id="tXobWxjcqB6qyV5-d99v-2" value="config.toml" style="rounded=0;whiteSpace=wrap;html=1;" parent="1" vertex="1">
          <mxGeometry x="80" y="230" width="120" height="60" as="geometry" />
        </mxCell>
      </root>
    </mxGraphModel>
  </diagram>
</mxfile>
